<svg viewBox="0 0 640 480" xmlns="http://www.w3.org/2000/svg" role="img" aria-labelledby="title">
  <title id="title">Mockup conceitual — Raiz</title>
  <rect width="640" height="480" fill="#FBF6EC"/>
  <rect x="0" y="0" width="640" height="86" fill="#F3EAD8"/>
  <text x="40" y="52" font-family="Georgia, serif" font-weight="700" font-size="26" fill="#2B3A2F" letter-spacing="0.5">Raiz</text>
  <rect x="500" y="30" width="100" height="30" rx="15" fill="#2B3A2F"/>
  <text x="550" y="50" font-family="Arial" font-size="11" fill="#FBF6EC" text-anchor="middle">Reservar</text>
  <ellipse cx="470" cy="240" rx="140" ry="130" fill="#E7B7A6" opacity="0.55"/>
  <circle cx="440" cy="250" r="95" fill="#F4EAD1"/>
  <path d="M395 260 Q420 225 460 232 Q495 238 505 210" stroke="#7C9473" stroke-width="7" fill="none" stroke-linecap="round"/>
  <circle cx="415" cy="270" r="12" fill="#C9972E"/>
  <circle cx="470" cy="235" r="9" fill="#E7B7A6"/>
  <text x="40" y="180" font-family="Georgia, serif" font-weight="700" font-size="40" fill="#2B3A2F">Comida com</text>
  <text x="40" y="230" font-family="Georgia, serif" font-style="italic" font-weight="700" font-size="40" fill="#C9972E">raiz.</text>
  <rect x="40" y="270" width="230" height="12" rx="6" fill="#2B3A2F" opacity="0.14"/>
  <rect x="40" y="292" width="180" height="12" rx="6" fill="#2B3A2F" opacity="0.14"/>
  <rect x="40" y="330" width="150" height="38" rx="19" fill="#2B3A2F"/>
  <g fill="#2B3A2F" opacity="0.85">
    <circle cx="90" cy="420" r="26"/>
    <circle cx="180" cy="420" r="26"/>
    <circle cx="270" cy="420" r="26"/>
    <circle cx="360" cy="420" r="26"/>
  </g>
</svg>
